<svg xmlns="http://www.w3.org/2000/svg" width="17" height="17" fill="none" viewBox="0 0 17 17">
  <path fill="#F05D63" fill-rule="evenodd" d="M9.896 1.414a2 2 0 012.829 0l2.828 2.829a2 2 0 010 2.828L8.605 14.02a.5.5 0 01-.307.144l-3.716.35a2 2 0 01-2.176-2.207l.396-3.642a.5.5 0 01.143-.3l6.951-6.95zm.707 2.122a1 1 0 011.414 0l1.414 1.415a1 1 0 010 1.414l-.708.708-2.828-2.829.708-.708zM8.48 5.66L4.943 9.196l-.414 2.066a1 1 0 001.177 1.176l2.065-.413 3.537-3.537L8.48 5.659z" clip-rule="evenodd"/>
</svg>
