<svg xmlns="http://www.w3.org/2000/svg" width="16" height="14" fill="none" viewBox="0 0 16 14">
  <path fill="#FB5F8A" fill-rule="evenodd" d="M8 8.093C7.18 9.255 5.908 10 4.48 10 2.006 10 0 7.761 0 5s2.006-5 4.48-5C5.908 0 7.18.745 8 1.907 8.82.745 10.092 0 11.52 0 13.994 0 16 2.239 16 5s-2.006 5-4.48 5c-1.428 0-2.7-.745-3.52-1.907z" clip-rule="evenodd"/>
  <mask id="a" width="16" height="10" x="0" y="0" maskUnits="userSpaceOnUse">
    <path fill="#fff" fill-rule="evenodd" d="M8 8.093C7.18 9.255 5.908 10 4.48 10 2.006 10 0 7.761 0 5s2.006-5 4.48-5C5.908 0 7.18.745 8 1.907 8.82.745 10.092 0 11.52 0 13.994 0 16 2.239 16 5s-2.006 5-4.48 5c-1.428 0-2.7-.745-3.52-1.907z" clip-rule="evenodd"/>
  </mask>
  <g mask="url(#a)">
    <path fill="#FC719F" d="M0 0h16v16H0z"/>
    <path fill="#ED5267" d="M0 0h16v16H0z"/>
  </g>
  <path fill="#FB5F8A" fill-rule="evenodd" d="M8 14c2.761 0 8-5 8-9H0c0 4 5.239 9 8 9z" clip-rule="evenodd"/>
  <mask id="b" width="16" height="9" x="0" y="5" maskUnits="userSpaceOnUse">
    <path fill="#fff" fill-rule="evenodd" d="M8 14c2.761 0 8-5 8-9H0c0 4 5.239 9 8 9z" clip-rule="evenodd"/>
  </mask>
  <g mask="url(#b)">
    <path fill="#FC719F" d="M0 0h16v16H0z"/>
    <path fill="#ED5267" d="M0 0h16v16H0z"/>
  </g>
</svg>
