<svg width="16" height="17" viewBox="0 0 16 17" fill="none" xmlns="http://www.w3.org/2000/svg">
<rect x="2" y="6" width="12" height="10" rx="2" stroke="#3E4056" stroke-width="2"/>
<path fill-rule="evenodd" clip-rule="evenodd" d="M4.42442 6.47131C5.50562 6.86484 7.47145 6.62744 7.84923 5.58949C8.22702 4.55153 6.87371 3.10607 5.7925 2.71254C4.7113 2.31902 3.52855 2.84143 3.15077 3.87939C2.77298 4.91734 3.34322 6.07779 4.42442 6.47131Z" stroke="#3E4056" stroke-width="2"/>
<path fill-rule="evenodd" clip-rule="evenodd" d="M11.5756 6.47131C10.4944 6.86484 8.52855 6.62744 8.15077 5.58949C7.77298 4.55153 9.12629 3.10607 10.2075 2.71254C11.2887 2.31902 12.4714 2.84143 12.8492 3.87939C13.227 4.91734 12.6568 6.07779 11.5756 6.47131Z" stroke="#3E4056" stroke-width="2"/>
<rect x="7" y="6" width="2" height="10" fill="#3E4056"/>
<mask id="path-5-inside-1" fill="white">
<path d="M0 7C0 5.89543 0.895431 5 2 5H14C15.1046 5 16 5.89543 16 7V10C16 10.5523 15.5523 11 15 11H1C0.447715 11 0 10.5523 0 10V7Z"/>
</mask>
<path d="M0 7C0 5.89543 0.895431 5 2 5H14C15.1046 5 16 5.89543 16 7V10C16 10.5523 15.5523 11 15 11H1C0.447715 11 0 10.5523 0 10V7Z" fill="white" stroke="#3E4056" stroke-width="4" mask="url(#path-5-inside-1)"/>
</svg>
