<svg xmlns="http://www.w3.org/2000/svg" width="16" height="14" fill="none" viewBox="0 0 16 14">
  <path fill="#ECF1F8" d="M0 0h16v14H0z" opacity=".01"/>
  <path fill="#3E4056" fill-rule="evenodd" d="M15 7c-.007.62-.349 1.203-.929 1.587L7.96 12.684c-.732.484-1.73.578-2.57.24-.842-.337-1.381-1.046-1.39-1.828V2.904c.009-.782.548-1.491 1.39-1.828.84-.338 1.838-.244 2.57.24l6.111 4.097c.58.384.922.967.929 1.587z" clip-rule="evenodd"/>
  <mask id="a" width="11" height="14" x="4" y="0" maskUnits="userSpaceOnUse">
    <path fill="#fff" fill-rule="evenodd" d="M15 7c-.007.62-.349 1.203-.929 1.587L7.96 12.684c-.732.484-1.73.578-2.57.24-.842-.337-1.381-1.046-1.39-1.828V2.904c.009-.782.548-1.491 1.39-1.828.84-.338 1.838-.244 2.57.24l6.111 4.097c.58.384.922.967.929 1.587z" clip-rule="evenodd"/>
  </mask>
  <g mask="url(#a)">
    <path fill="#3E4056" d="M4 .875h11v12.25H4z"/>
  </g>
</svg>
